<?xml version='1.0' standalone='no'?><!DOCTYPE svg PUBLIC '-//W3C//DTD SVG 1.1//EN' 'http://www.w3.org/Graphics/SVG/1.1/DTD/svg11.dtd'><svg version='1.1' xmlns='http://www.w3.org/2000/svg' xmlns:xlink='http://www.w3.org/1999/xlink' viewBox='0 0 400 400'>
<g class="bg-rect" id="bgRect"><rect fill="hsl(0,100%,100%)" width="400" height="400" /></g>
<g class="bg-circle-big-1" id="bgCircleBig1"><circle fill="hsl(32,47%,77%)" cx="203.1" cy="200" r="171.5"/></g>
<g class="bg-polygon" id="bgPolygon"><polygon fill="hsl(32,47%,77%)" points="16,388 16,12 361.05,12 204.75,200 361.489,388"/></g>
<g class="bg-circle-big-2"  id="bgCircleBig2"><circle fill="hsl(342,8%,25%)" cx="203.1" cy="200" r="125.5"/></g>
<g class="outer-c" id="outerC"><path fill="hsl(112, 45%, 39%)" d="M204.023,75.01c30.537,0,58.551,11.023,80.283,29.288l29.557-35.244 c-29.734-25.002-68.041-40.083-109.84-40.083c-94.299,0-171.006,76.707-171.006,170.999c0,94.288,76.708,171,171.006,171 c41.799,0,80.105-15.09,109.84-40.086l-29.557-35.259c-21.732,18.269-49.746,29.3-80.283,29.3 c-68.911,0-124.967-56.062-124.967-124.956C79.057,131.066,135.112,75.01,204.023,75.01"/></g>
<g class="bg-circle-small" id="bgCircleSmall"><circle fill="hsl(342,8%,15%)" cx="203.5" cy="200" r="68"/></g>
<g class="middle-c" id="middleC"><path fill="hsl(52, 45%, 50%)" d="M204.332,132.492c16.49,0,31.617,5.953,43.353,15.815l15.961-19.032 c-16.056-13.501-36.741-21.645-59.313-21.645c-50.921,0-92.343,41.422-92.343,92.34c0,50.916,41.422,92.34,92.343,92.34 c22.572,0,43.258-8.148,59.313-21.646l-15.961-19.039c-11.735,9.864-26.862,15.821-43.353,15.821 c-37.212,0-67.482-30.272-67.482-67.476C136.85,162.763,167.12,132.492,204.332,132.492"/></g>
<g class="inner-c" id="innerC"><path fill="hsl(0, 100%, 100%)" d="M205.67,171.629c7.036,0,13.49,2.54,18.497,6.749l6.812-8.121c-6.852-5.761-15.678-9.235-25.309-9.235 c-21.726,0-39.4,17.673-39.4,39.399c0,21.722,17.674,39.398,39.4,39.398c9.631,0,18.457-3.477,25.309-9.236l-6.812-8.123 c-5.007,4.209-11.461,6.75-18.497,6.75c-15.877,0-28.792-12.916-28.792-28.789C176.878,184.544,189.793,171.629,205.67,171.629"/></g>
</svg>

